/* XPM */
static char *_3e2d2daa67849df811f2b3212dfcb1fU5fxz2YL0R5fj9MM[] = {
/* columns rows colors chars-per-pixel */
"16 26 10 1 ",
"  c None",
". c #2D220F",
"X c #3D2C12",
"o c #4D3716",
"O c #AD7718",
"+ c #DDAF0A",
"@ c #E8BD07",
"# c #F3CA04",
"$ c #FFD800",
"% c #FEFEC0",
/* pixels */
"o%%%%%%%%%%%%o  ",
"o%%%%%%%%%%%%o  ",
"o%$$$$$$$$$$%%%o",
"o%$$$$$$$$$$$%%o",
"o%$$$$%OO%$$$$%o",
"o%$$$$%OO%$$$$%o",
"o%$$$$%XX%$$$$%o",
"o%$$$$%oo%$$$$%o",
"o%$#$#%oo%$#$#%o",
"o%#$#$%oo%#$#$%o",
"o%####%oo%####%o",
"o%####%oo%####%o",
"o%#@#@%oo%#@#@%o",
"o%@#@#%oo%@#@#%o",
"o%@@@@%oo%@@@@%o",
"o%@@@@%oo%@@@@%o",
"o%@+@+%%%+@+@+%o",
"o%+@+@+%%@+@+@%o",
"o%++++++++++%OOo",
"o%++++++++++%OOo",
"oOOOOOOOOOOOOXXo",
"oOOOOOOOOOOOOooo",
"oXXXXXXXXXXXXo..",
"oooooooooooooo..",
"..............  ",
"..............  "
};
