/* XPM */
static char *_c1169d5fabd4d37c95b5069c6055acfiBzjVgcUbNaHc5iZ[] = {
/* columns rows colors chars-per-pixel */
"16 27 10 1 ",
"  c None",
". c #2D220F",
"X c #3D2C12",
"o c #4D3716",
"O c #AD7718",
"+ c #DDAF0A",
"@ c #E8BD07",
"# c #F3CA04",
"$ c #FFD800",
"% c #FEFEC0",
/* pixels */
"                ",
"o%%%%%%%%%%%%%%o",
"o%%%%%%%%%%%%%%o",
"o%$$$$$$$$$$$$%o",
"o%$$$$$$$$$$$$%o",
"o%$$$$%OOOOOOOOo",
"o%$$$$%OOOOOOOOo",
"o%$$$$%XXXXXXXXo",
"o%$$$$%ooooooooo",
"o%$#$#%%%%%%%o..",
"o%#$#$#%%%%%%o..",
"o%##########%o  ",
"o%##########%o  ",
"o%#@#@%OOOOOOo  ",
"o%@#@#%OOOOOOo  ",
"o%@@@@%XXXXXXo  ",
"o%@@@@%ooooooo  ",
"o%@+@+%%%%%%%%%o",
"o%+@+@+%%%%%%%%o",
"o%++++++++++++%o",
"o%++++++++++++%o",
"oOOOOOOOOOOOOOOo",
"oOOOOOOOOOOOOOOo",
"oXXXXXXXXXXXXXXo",
"oooooooooooooooo",
"................",
"................"
};
