/* XPM */
static char *a947e5addf234dd2d86873bdb033a9beYIheUSXXRMKec03M[] = {
/* columns rows colors chars-per-pixel */
"129 26 18 1 ",
"  c #484848",
". c gray33",
"X c #646464",
"o c #980000",
"O c #FC0000",
"+ c #848400",
"@ c #B4AC00",
"# c #CCC400",
"$ c #E4D800",
"% c #FCF400",
"& c #FCFC54",
"* c #000088",
"= c #0000D4",
"- c #980088",
"; c #FC9C9C",
": c #FCFCB8",
"> c #9C9CFC",
", c #FCFCD8",
/* pixels */
"o%%%%%%%%%%%%%%o    o%%%%%%oo%%%%%%o    o%%%%%%%%%%%%%%o                 o%%%%%%%%%%%%%%o    o%%%%o    o%%%%o    o%%%%%%%%%%%%o  ",
"o%%%%%%%%%%%%%%o    o%%%%%%oo%%%%%%o    o%%%%%%%%%%%%%%o                 o%%%%%%%%%%%%%%o    o%%%%o    o%%%%o    o%%%%%%%%%%%%o  ",
"o%$$$$$$$$$$$$%o    o%$$$$%oo%$$$$%o    o%$$$$$$$$$$$$%o                 o%$$$$$$$$$$$$%o    o%$$%%%o  o%$$%o    o%$$$$$$$$$$%%%o",
"o%$$$$$$$$$$$$%o    o%$$$$%oo%$$$$%o    o%$$$$$$$$$$$$%o                 o%$$$$$$$$$$$$%o    o%$$$%%o  o%$$%o    o%$$$$$$$$$$$%%o",
"oOOOO%$$$$%OOOOo    o%$$$$%oo%$$$$%o    o%$$$$%OOOOOOOOo                 o%$$$$%OOOOOOOOo    o%$$$$%o  o%$$%o    o%$$$$%OO%$$$$%o",
"oOOOO%$$$$%OOOOo    o%$$$$%oo%$$$$%o    o%$$$$%OOOOOOOOo                 o%$$$$%OOOOOOOOo    o%$$$$%o  o%$$%o    o%$$$$%OO%$$$$%o",
"oXXXX%$$$$%XXXXo    o%$$$$%oo%$$$$%o    o%$$$$%XXXXXXXXo                 o%$$$$%XXXXXXXXo    o%$$$$%%%oo%$$%o    o%$$$$%XX%$$$$%o",
"ooooo%$$$$%ooooo    o%$$$$%oo%$$$$%o    o%$$$$%ooooooooo                 o%$$$$%ooooooooo    o%$$$$$%%oo%$$%o    o%$$$$%oo%$$$$%o",
"....o%$#$#%o....    o%$#$#%%%#$#$#%o    o%$#$#%%%%%%%o..                 o%$#$#%%%%%%%o..    o%$#$#$#%%%#$#%o    o%$#$#%oo%$#$#%o",
"....o%#$#$%o....    o%#$#$#%%$#$#$%o    o%#$#$#%%%%%%o..                 o%#$#$#%%%%%%o..    o%#$#$#$#%%$#$%o    o%#$#$%oo%#$#$%o",
"    o%####%o        o%############%o    o%##########%o                   o%##########%o      o%############%o    o%####%oo%####%o",
"    o%####%o        o%############%o    o%##########%o                   o%##########%o      o%############%o    o%####%oo%####%o",
"    o%#@#@%o        o%#@#@%OO%#@#@%o    o%#@#@%OOOOOOo                   o%#@#@%OOOOOOo      o%#@%OO%#@#@#@%o    o%#@#@%oo%#@#@%o",
"    o%@#@#%o        o%@#@#%OO%@#@#%o    o%@#@#%OOOOOOo                   o%@#@#%OOOOOOo      o%@#%OO%@#@#@#%o    o%@#@#%oo%@#@#%o",
"    o%@@@@%o        o%@@@@%XX%@@@@%o    o%@@@@%XXXXXXo                   o%@@@@%XXXXXXo      o%@@%XXOO%@@@@%o    o%@@@@%oo%@@@@%o",
"    o%@@@@%o        o%@@@@%oo%@@@@%o    o%@@@@%ooooooo                   o%@@@@%ooooooo      o%@@%ooOO%@@@@%o    o%@@@@%oo%@@@@%o",
"    o%@+@+%o        o%@+@+%oo%@+@+%o    o%@+@+%%%%%%%%%o                 o%@+@+%%%%%%%%%o    o%@+%ooXX%@+@+%o    o%@+@+%%%+@+@+%o",
"    o%+@+@%o        o%+@+@%oo%+@+@%o    o%+@+@+%%%%%%%%o                 o%+@+@+%%%%%%%%o    o%+@%oooo%+@+@%o    o%+@+@+%%@+@+@%o",
"    o%++++%o        o%++++%oo%++++%o    o%++++++++++++%o                 o%++++++++++++%o    o%++%o..oOO%++%o    o%++++++++++%OOo",
"    o%++++%o        o%++++%oo%++++%o    o%++++++++++++%o                 o%++++++++++++%o    o%++%o..oOO%++%o    o%++++++++++%OOo",
"    oOOOOOOo        oOOOOOOooOOOOOOo    oOOOOOOOOOOOOOOo                 oOOOOOOOOOOOOOOo    oOOOOo  oXXOOOOo    oOOOOOOOOOOOOXXo",
"    oOOOOOOo        oOOOOOOooOOOOOOo    oOOOOOOOOOOOOOOo                 oOOOOOOOOOOOOOOo    oOOOOo  oooOOOOo    oOOOOOOOOOOOOooo",
"    oXXXXXXo        oXXXXXXooXXXXXXo    oXXXXXXXXXXXXXXo                 oXXXXXXXXXXXXXXo    oXXXXo  ..oXXXXo    oXXXXXXXXXXXXo..",
"    oooooooo        oooooooooooooooo    oooooooooooooooo                 oooooooooooooooo    oooooo  ..oooooo    oooooooooooooo..",
"    ........        ................    ................                 ................    ......    ......    ..............  ",
"    ........        ................    ................                 ................    ......    ......    ..............  "
