/* XPM */
static char *result[] = {
/* columns rows colors chars-per-pixel */
"50 50 18 1 ",
"  c gray22",
". c #7C0000",
"X c #484848",
"o c gray33",
"O c #646464",
"+ c gray44",
"@ c #7C7C7C",
"# c #880000",
"$ c #980000",
"% c #A40000",
"& c #B00000",
"* c #BC0000",
"= c #C80000",
"- c #D40000",
"; c gray55",
": c #989898",
"> c gray66",
", c #B4B4B4",
/* pixels */
"                                                  ",
"OOOOOOOOOOOOOOOOOOOOOOOOOOOOOOOOOOOOOOOOOOOOOOOOOO",
"@@@@@@@@@@@@@@;@;;;;;;::::;;;@;@;;@@@@+@++@++O++OO",
"@@:,:@@:,@;@::@;;;;;::::;;;;;;@;@@@@@+@+@@++O+OOOO",
"@@+:,@@+:;@;+,;;;:;::::;;;;;@@;@;@@@@@+@+++O+OOOOO",
"@@@;@@;@;;;;;;:;::,OoXXXXXXXXXXXXXXXo:;@+++:;OOOOO",
";@;@;;@;;;;;;:;::::,+++++++++OOOOOOO+;@+++o+@OOOOO",
"@;@;@;;;;;;:;:::::;:,;;@;;@;@@@@@@@+:@+++O+OOOOOOO",
";@;@;;;;;;:;:::::;;:,;@;@@;@;@@@@@+;:+++++O+OOOOOO",
";;;;;;;:;:::::;:;;;;;,:;@@;@@@@@@;:;++++++OOOOOOO+",
";;;;&=::::::@;:;;;;;@:,@;;@@@@@@+:;+@+++OOOOXOOOOO",
";;;&**=:::::>@;;;:,:;;>;@@@@@@@+@:+@+@;;+OOoXOOOO+",
";:=****=:::;,O;;;+:,@@;>;@@@@@+@;;@+++:;OOooXOOO+O",
":=******=::;,oO;;o+:;;@;>@@@@+@;:@+++o+@+OooXOOOO+",
"::::::::;;;;,;@oO@;@;;@@@>@@@+:;@++++O+OOOOoXOO+O+",
":******&%;;;,;;Oo;@;@@@@@>;@@;:@++++++OOoOOoXOOO+O",
"::****&%;;;;,;@;X@;@;@@@@;>;+:;+@++++O+OoOOoXOO+O+",
":::**&%;;;;;,@;@OO@;@@@@@@;>;;+@++++++OoOOOoXO+O++",
":::;&%;;;;;;,;@;@XO@;@:>:@+;>+@+@;++OOoOOOOoXOO+O+",
":;:;;;;;;;;@,;@;@@OX@@o+:@+@++++o@++OoOOOOOoX+O+++",
";:;::>>>;;@;,@;@;;@XO@@@++@+@++++++OOOOOOOOoXO+O++",
":;O;;;;>@@;@,;@;@@@OX@@+@@+@++++++OOoOOOOOOoX+O+++",
";;O;;;;>;;@;,@;@;@@@OO+@++@++++++OOoOOOOOOOoXO++++",
";;oO&&+>;;@;>@;@@@@@@XO@+++@;++++OoOOOOOOOOoXO++@+",
";;o#&-&>@@;@>;@@@@@@@OX+@@++:++++oOOOOOOOOOoX++@+@",
";;X.%&&:;;@;>@@@@@@@@@;@+++o++++O@OOOOOOOOOoXO++@+",
";@X.#$$:@@;@>;@@@@@@+;:;@++++++O+;@OOOOOOOOoX++@+@",
";@XOoO;;@@;@>@@@@@+@;;@++++++++O+O@;@OOOOOOoX++@+@",
"@;X;;;;@;;@;>@@@@+@+;@++++++++O+OOO@@OOOOO+oX+@+@+",
";@XXXoo+@@;@>@@@@@+;:++++++++O+OOOOO@OOOO+OoX@+@+@",
"@;@;@@;@;;@@>@@@@+;:;+@;;+++++OO+@OO@@OOOO+oX+@+@+",
"@;@;@@;@;@@@>@@@+:;+@+o+@++Oo+OOo+OOO@;@OO+oX+@+@+",
";@;@;;@;@@@@>@@+@:+@++++++OoOoOOOOOOOO@;O+OoX@+@+@",
"@;@;@@;@@@@@>@+@;+@++++++OoO+XoOOOOOOOO@;O+oX+@+@+",
";@;@;;@@@@@@>+@;:@+++++++oO+OoXOOOOOOOO@:++oX@+@+@",
"@;@;@@@@@@@@>@;:;++++++++o+O+OXoOOOOOOOO;;+OX+@+@+",
"@;@;@@@@@@@+>;:@+++++++OoO+OOOOoXOOOOOO+O:;+o+@+@+",
";@;@;@@@@@+@>:;++;;+++OoO+OOOOOOooOOO+;@+;:;O@+@+@",
"@;@;@@@@@@@+>;+++:;+++oO+O+OOOOOOXOOO+;;O+;:++@+@@",
";@:,:@@@@@+@>+++++@++Oo+++OOOOOOOXoOOo+++++;+@+@+@",
"@;+:,@@@@+@+>@+++++++oO+OOOOOOOOOoXoOOO+O+@+@+@+@@",
"@@@@@@@@++@+@+++++++o+O+OOOOOOOOOOOoX+O+++@+@+@+@@",
"@@@@@@@+@@+@+++++++Oo++O+OOOOOOOOOOOXO+O+++@+@+@@@",
"@@@@@@+@++@+++++++OoO+O+OOOOOOOOOOOOooO+++:,:+@+@@",
"@@:,:+@;:@++@;++++o+::::;;;;;;;;;;;;;X+++++:,@+@@@",
"@@+:,@++:++++;++++++++OOOOOOOOOOOOOOO+O+++o+:+@+@@",
"@@@@@@+@++++++++++++++OOOOOOOOOOOOOO++++++@+@+@+@@",
"@@@@++@+@+++++++++++OOOOOOOOOOOOOOOOOO+++@+@+@+@@@",
"OOOOOOOOOOOOOOOOOOOOOOOOOOOOOOOOOOOOOOOOOOOOOOOOOO",
"XXXXXXXXXXXXXXXXXXXXXXXXXXXXXXXXXXXXXXXXXXXXXXXXXX"
};
