/* XPM */
static char *_f32960ed7e849d58678b1f48fc48dd56iCzgO9B9C2lkDpd[] = {
/* columns rows colors chars-per-pixel */
"47 48 52 1 ",
"  c black",
". c #28200C",
"X c #382C14",
"o c #202020",
"O c #2C2C2C",
"+ c gray22",
"@ c #403018",
"# c #483818",
"$ c #543C1C",
"% c #5C4020",
"& c #6C4824",
"* c #744C28",
"= c #000040",
"- c #00004C",
"; c #000064",
": c #000070",
"> c #00007C",
", c #484848",
"< c gray33",
"1 c #646464",
"2 c gray44",
"3 c #7C7C7C",
"4 c #80502C",
"5 c #885830",
"6 c #905C34",
"7 c #9C6038",
"8 c #A0643C",
"9 c #A86840",
"0 c #B47044",
"q c #BC7848",
"w c #C87C4C",
"e c #D08050",
"r c #DC8854",
"t c #E88C58",
"y c #F0945C",
"u c #FC9C60",
"i c #FCA470",
"p c #000088",
"a c #0000A8",
"s c #0000B0",
"d c #0000C8",
"f c #0004FC",
"g c #980088",
"h c gray55",
"j c #989898",
"k c gray66",
"l c #B4B4B4",
"z c #FCB080",
"x c #FCB890",
"c c #FCBC9C",
"v c #C0C0C0",
"b c #D0D0D0",
/* pixels */
"ggggggggggggggggggggggggggggggggggggggggggggggg",
"ggggggggggggggggggggg3kh3<+gggggggggggggggggggg",
"gggggggggggggggggggg3k12<,OOggggggggggggggggggg",
"ggggggggggggggggggggh322<,+Oggggggggggggggggggg",
"ggggggggggggggggggg3h322<<,OOgggggggggggggggggg",
"gggggggggggggggggg33vbvkh2<<++ggggggggggggggggg",
"gggggggggggggggggg3, 8f84f4 o+ggggggggggggggggg",
"ggggggggggggggggggOo*ice0ci*oOggggggggggggggggg",
"gggggggggggggggggggo#ruyyur#ogggggggggggggggggg",
"gggggggggggggggggggg#qrw0rq#ggggggggggggggggggg",
"ggggggggggggggggggg  7uzzu#  gggggggggggggggggg",
"gggggggggggggggggg1 << 50 <<  &gggggggggggggggg",
"gggggggggggggggg991+lj    j3 699ggggggggggggggg",
"ggggggggggggggg*rt01$ ,5.5  0rrr9gggggggggggggg",
"gggggggggggggggwtee+16tt7rrrrewwq*ggggggggggggg",
"ggggggggggggggwrtq00++6e7e664*868qggggggggggggg",
"ggggggggggggggetq94w6o+6$e6ee**&644gggggggggggg",
"ggggggggggggggetq&#&46o++6*77#*X44$gggggggggggg",
"gggggggggggggwwte&@$&&$ o+6*#*$X**4gggggggggggg",
"gggggggggggggttt9&X@$$@$  o+6$XX@%&gggggggggggg",
"gggggggggggggtq7%%X@@@@@X$   ..#%44&ggggggggggg",
"gggggggggggggqttw4Xoooo311ooooo#&66&ggggggggggg",
"gggggggggggggqew88&oooo11,oooo..o88&ggggggggggg",
"ggggggggggggggeexe&##&&&$&%##@@.0w87ggggggggggg",
"ggggggggggggggexr59*4599$444&%$@0w87ggggggggggg",
"gggggggggggggggiir9455694*54*&%g@w0gggggggggggg",
"gggggggggggggggg995555664*554&%gggggggggggggggg",
"ggggggggggggggggg#%77**44*554&%gggggggggggggggg",
"gggggggggggggggggg0eyy9*XX$&&@.gggggggggggggggg",
"ggggggggggggggggggeiiiy9%%&*4&%gggggggggggggggg",
"gggggggggggggggggguiiiye5&4554%gggggggggggggggg",
"ggggggggggggggggg7iiiii75&4554%gggggggggggggggg",
"gggggggggggggggggyyyyy0y5&4554%gggggggggggggggg",
"gggggggggggggggggy799747w&4574%gggggggggggggggg",
"gggggggggggggggggg&4490$5&4547&gggggggggggggggg",
"ggggggggggggggggg$&44&##.$44*&4#ggggggggggggggg",
"gggggggggggggggggg@&%$@@#$$$$$@#ggggggggggggggg",
"ggggggggggggggggggo... o##$$$$@gggggggggggggggg",
"ggggggggggggggggggo:    .###@.@gggggggggggggggg",
"ggggggggggggggggggg:-   =o=oo ggggggggggggggggg",
"ggggggggggggggggggg     =o=oo ggggggggggggggggg",
"ggggggggggggggggggg>o   =;==o ggggggggggggggggg",
"ggggggggggggggggggoa;o  g=;=o ggggggggggggggggg",
"ggggggggggggggggggodp:o gp:=o ggggggggggggggggg",
"gggggggggggggggggggooo ggp:: gggggggggggggggggg",
"gggggggggggggggggggggggg sa>= ggggggggggggggggg",
"ggggggggggggggggggggggggs>;==  gggggggggggggggg",
"ggggggggggggggggggggggggooooo  gggggggggggggggg"
};
