/* XPM */
static char *_6bdaa9c8c614469a6a479f11da2a65dSDzH58pXaAG2922d[] = {
/* columns rows colors chars-per-pixel */
"47 46 50 1 ",
"  c black",
". c #28200C",
"X c #382C14",
"o c #202020",
"O c #2C2C2C",
"+ c gray22",
"@ c #403018",
"# c #483818",
"$ c #543C1C",
"% c #5C4020",
"& c #6C4824",
"* c #744C28",
"= c #000040",
"- c #000064",
"; c #000070",
": c #00007C",
"> c #484848",
", c gray33",
"< c #646464",
"1 c gray44",
"2 c #7C7C7C",
"3 c #80502C",
"4 c #885830",
"5 c #905C34",
"6 c #9C6038",
"7 c #A0643C",
"8 c #A86840",
"9 c #B47044",
"0 c #BC7848",
"q c #C87C4C",
"w c #D08050",
"e c #DC8854",
"r c #E88C58",
"t c #F0945C",
"y c #FC9C60",
"u c #FCA470",
"i c #000088",
"p c #0000A4",
"a c #0000A8",
"s c #0000C8",
"d c #0000D4",
"f c #0004FC",
"g c #980088",
"h c gray55",
"j c gray66",
"k c #FCB080",
"l c #FCB890",
"z c #FCBC9C",
"x c #C0C0C0",
"c c #D0D0D0",
/* pixels */
"ggggggggggggggggggggggggggggggggggggggggggggggg",
"gggggggggggggggggggggjjh2,+gggggggggggggggggggg",
"ggggggggggggggggggggjc<1,>+Oggggggggggggggggggg",
"gggggggggggggggggggghh111>+Oggggggggggggggggggg",
"ggggggggggggggggggg2hh111,>+Ogggggggggggggggggg",
"gggggggggggggggggg2xxcjjjh1,>+ggggggggggggggggg",
"gggggggggggggggggg2o>7f77f4 o+ggggggggggggggggg",
"gggggggggggggggggg>o6uzw7yy6ooggggggggggggggggg",
"gggggggggggggggggggg#yyttee#ggggggggggggggggggg",
"gggggggggggggggggggg#qe77q9#ggggggggggggggggggg",
"ggggggggggggggggggg  6ykke6  gggggggggggggggggg",
"gggggggggggggggggg< ,, @9+O,< &gggggggggggggggg",
"gggggggggggggggggg<+1xj   jjo505ggggggggggggggg",
"ggggggggggggggggg0r<$+o4.4 o90885gggggggggggggg",
"gggggggggggggggg6rw+<>rr48ee08788gggggggggggggg",
"gggggggggggggggg0eywwo>w9&86644#7*ggggggggggggg",
"ggggggggggggggggwyy0#OoO4&4*9w4#**ggggggggggggg",
"ggggggggggggggggwye8#6OO+@&%*6#.X%ggggggggggggg",
"ggggggggggggggggwry77%3*&O$&4#*.%%ggggggggggggg",
"ggggggggggggggggyy0yr9qy9$ o$&@%44ggggggggggggg",
"ggggggggggggggggryyyyykll6o  .@%88ggggggggggggg",
"ggggggggggggggggwwrty8uue8     Xw&ggggggggggggg",
"ggggggggggggggggg99999eue8     Xwgggggggggggggg",
"ggggggggggggggggggg663333$%##.X&ggggggggggggggg",
"gggggggggggggggggg964**3$78874$&ggggggggggggggg",
"gggggggggggggggggg9086*3$788w74@ggggggggggggggg",
"gggggggggggggggggg90964*588ww94@ggggggggggggggg",
"gggggggggggggggggg*0966$7&&&&&&@ggggggggggggggg",
"gggggggggggggggggg7*%%%#&5qqq5%@ggggggggggggggg",
"gggggggggggggggggg90664%4qeee55#ggggggggggggggg",
"gggggggggggggggggg89644%4qeeeq5#ggggggggggggggg",
"ggggggggggggggggggg3744%5qeeeq&gggggggggggggggg",
"gggggggggggggggggg%7&33&%qwwww&gggggggggggggggg",
"gggggggggggggggggg%&&&&$4www0w&gggggggggggggggg",
"gggggggggggggggggg%@$$$#w7qq859#ggggggggggggggg",
"gggggggggggggggggggo@@@#$8qq83&#ggggggggggggggg",
"ggggggggggggggggggggooo@&89983@gggggggggggggggg",
"gggggggggggggggggggg   o$&433&@gggggggggggggggg",
"gggggggggggggggggggg-:== oooo ggggggggggggggggg",
"gggggggggggggggggggg-a== oa;o ggggggggggggggggg",
"ggggggggggggggggggggas=o aa;o ggggggggggggggggg",
"gggggggggggggggggggg-==og=i;o ggggggggggggggggg",
"ggggggggggggggggggggggggg a;o ggggggggggggggggg",
"ggggggggggggggggggggggggg-a; gggggggggggggggggg",
"gggggggggggggggggggggggg=-ad; ggggggggggggggggg",
"ggggggggggggggggggggggg=-iipi ggggggggggggggggg"
};
