/* XPM */
static char *fbbca735bfa54d38d2e411165d880624PoUWYKXAYA4rMFUo[] = {
/* columns rows colors chars-per-pixel */
"49 48 55 1 ",
"  c black",
". c #28200C",
"X c #382C14",
"o c #202020",
"O c #2C2C2C",
"+ c gray22",
"@ c #403018",
"# c #483818",
"$ c #543C1C",
"% c #5C4020",
"& c #6C4824",
"* c #744C28",
"= c #000040",
"- c #00004C",
"; c #000064",
": c #000070",
"> c #484848",
", c gray33",
"< c #646464",
"1 c gray44",
"2 c #7C7C7C",
"3 c #80502C",
"4 c #885830",
"5 c #905C34",
"6 c #9C6038",
"7 c #A0643C",
"8 c #A86840",
"9 c #B47044",
"0 c #BC7848",
"q c #C87C4C",
"w c #D08050",
"e c #DC8854",
"r c #E88C58",
"t c #F0945C",
"y c #FC9C60",
"u c #FCA470",
"i c #000088",
"p c #0000A4",
"a c #0000A8",
"s c #0000C8",
"d c #0000D4",
"f c #0000EC",
"g c #0004FC",
"h c #980088",
"j c gray55",
"k c #989898",
"l c gray66",
"z c #B4B4B4",
"x c #FCB080",
"c c #FCB890",
"v c #FCBC9C",
"b c #C0C0C0",
"n c #D0D0D0",
"m c gainsboro",
"M c gray99",
/* pixels */
"hhhhhhhhhhhhhhhhhhhhhhhhhhhhhhhhhhhhhhhhhhhhhhhhh",
"hhhhhhhhhhhhhhhhhhhhhhllj2,+hhhhhhhhhhhhhhhhhhhhh",
"hhhhhhhhhhhhhhhhhhhhhll<1,>OOhhhhhhhhhhhhhhhhhhhh",
"hhhhhhhhhhhhhhhhhhhhhj211,>+Ohhhhhhhhhhhhhhhhhhhh",
"hhhhhhhhhhhhhhhhhhhh+j211,,>OOhhhhhhhhhhhhhhhhhhh",
"hhhhhhhhhhhhhhhhhhhh2bnblj1,,ohhhhhhhhhhhhhhhhhhh",
"hhhhhhhhhhhhhhhhhhh2> 8gt0g8 oohhhhhhhhhhhhhhhhhh",
"hhhhhhhhhhhhhhhhhhh o*uvw9vu*oohhhhhhhhhhhhhhhhhh",
"hhhhhhhhhhhhhhhhhhhho#eyttye#ohhhhhhhhhhhhhhhhhhh",
"hhhhhhhhhhhhhhhhhhhhh#0eq9e0#hhhhhhhhhhhhhhhhhhhh",
"hhhhhhhhhhhhhhhhhhhhh 6yxxy# hhhhhhhhhhhhhhhhhhhh",
"hhhhhhhhhhhhhhhhhhhh   &777   hhhhhhhhhhhhhhhhhhh",
"hhhhhhhhhhhhhhhhhhh< M1 @9 1n  &hhhhhhhhhhhhhhhhh",
"hhhhhhhhhhhhhhhhh88<+1n    n155884hhhhhhhhhhhhhhh",
"hhhhhhhhhhhhhhhh*er9<$ >4.4 59eee84hhhhhhhhhhhhhh",
"hhhhhhhhhhhhhhhh8r9w+<5rr6eeeew780*hhhhhhhhhhhhhh",
"hhhhhhhhhhhhhhhher*99++5w6w553*7#70*hhhhhhhhhhhhh",
"hhhhhhhhhhhhhhhwr7#3q5o+5$w5ww**#6w*hhhhhhhhhhhhh",
"hhhhhhhhhhhhhhhwr4o#7r5o++5*66#*.6w$hhhhhhhhhhhhh",
"hhhhhhhhhhhhhhhrrw&.&qe5 o+5*#*..ww4hhhhhhhhhhhhh",
"hhhhhhhhhhhhhh0rr6&.$qe%5  o+5*..%60hhhhhhhhhhhhh",
"hhhhhhhhhhhhhh7r7....37%w$8   ..Xww0hhhhhhhhhhhhh",
"hhhhhhhhhhhhhh7rrr..+1,+mzko+oo XX60hhhhhhhhhhhhh",
"hhhhhhhhhhhhhh0w47$.+1,+22>o+oo X6%6hhhhhhhhhhhhh",
"hhhhhhhhhhhhhhhww7$..#333$3%##.X&ww6hhhhhhhhhhhhh",
"hhhhhhhhhhhhhhhww4..59ww8$7885$.&6wwhhhhhhhhhhhhh",
"hhhhhhhhhhhhhhhw6X.59www8$7885&@.X&&hhhhhhhhhhhhh",
"hhhhhhhhhhhhhhhhuq.5wwww8$78853@.quhhhhhhhhhhhhhh",
"hhhhhhhhhhhhhhhhcc 5wwqw8$78853@.cwhhhhhhhhhhhhhh",
"hhhhhhhhhhhhhhhhu3.%%%%%. .......3qhhhhhhhhhhhhhh",
"hhhhhhhhhhhhhhhhhe#9w93#. #333&##qhhhhhhhhhhhhhhh",
"hhhhhhhhhhhhhhhhhhX0w94&X #0833&#hhhhhhhhhhhhhhhh",
"hhhhhhhhhhhhhhhhhh40w96&X &0883&#hhhhhhhhhhhhhhhh",
"hhhhhhhhhhhhhhhhhh4rw96&. #3e83&#hhhhhhhhhhhhhhhh",
"hhhhhhhhhhhhhhhhhh4rwe96& #&e83&#hhhhhhhhhhhhhhhh",
"hhhhhhhhhhhhhhhhhh4rt9%6.o&60e3$#hhhhhhhhhhhhhhhh",
"hhhhhhhhhhhhhhhhhh*6rwe&..6rte7@&hhhhhhhhhhhhhhhh",
"hhhhhhhhhhhhhhhhhh&0w636$..64&$%@hhhhhhhhhhhhhhhh",
"hhhhhhhhhhhhhhhhhh&0009$..&0e83.@hhhhhhhhhhhhhhhh",
"hhhhhhhhhhhhhhhhhhh$33$....&4%@.@hhhhhhhhhhhhhhhh",
"hhhhhhhhhhhhhhhhhhho     h      hhhhhhhhhhhhhhhhh",
"hhhhhhhhhhhhhhhhhhho:--  h oooo hhhhhhhhhhhhhhhhh",
"hhhhhhhhhhhhhhhhhhhoa:-o h a:oo hhhhhhhhhhhhhhhhh",
"hhhhhhhhhhhhhhhhhhho::-o h =a-o hhhhhhhhhhhhhhhhh",
"hhhhhhhhhhhhhhhhhhhoa:-ohhh a-o hhhhhhhhhhhhhhhhh",
"hhhhhhhhhhhhhhhhhhhhoa-ohhh a: hhhhhhhhhhhhhhhhhh",
"hhhhhhhhhhhhhhhhhhhoaf:o h =ad: hhhhhhhhhhhhhhhhh",
"hhhhhhhhhhhhhhhhhhoasi:o h ;-p;= hhhhhhhhhhhhhhhh"
};
