/* XPM */
static char *_64f034f6ddc4dc4ff964da2a1092552yJiAZJmjlY6YIkRX[] = {
/* columns rows colors chars-per-pixel */
"48 45 52 1 ",
"  c black",
". c #28200C",
"X c #202020",
"o c #2C2C2C",
"O c gray22",
"+ c #403018",
"@ c #483818",
"# c #543C1C",
"$ c #5C4020",
"% c #6C4824",
"& c #744C28",
"* c #000040",
"= c #00004C",
"- c #000058",
"; c #000064",
": c #000070",
"> c #00007C",
", c #484848",
"< c gray33",
"1 c #646464",
"2 c gray44",
"3 c #7C7C7C",
"4 c #80502C",
"5 c #885830",
"6 c #905C34",
"7 c #9C6038",
"8 c #A0643C",
"9 c #A86840",
"0 c #B47044",
"q c #BC7848",
"w c #C87C4C",
"e c #D08050",
"r c #DC8854",
"t c #E88C58",
"y c #F0945C",
"u c #FC9C60",
"i c #FCA470",
"p c #000088",
"a c #000098",
"s c #0000A4",
"d c #0000A8",
"f c #0000D4",
"g c #0004FC",
"h c #980088",
"j c gray55",
"k c gray66",
"l c #B4B4B4",
"z c #FCB080",
"x c #FCB890",
"c c #FCBC9C",
"v c #C0C0C0",
"b c #D0D0D0",
/* pixels */
"hhhhhhhhhhhhhhhhhhhhhh3kj3<Ohhhhhhhhhhhhhhhhhhhh",
"hhhhhhhhhhhhhhhhhhhhh3k12<,oohhhhhhhhhhhhhhhhhhh",
"hhhhhhhhhhhhhhhhhhhhhj322<,Oohhhhhhhhhhhhhhhhhhh",
"hhhhhhhhhhhhhhhhhhhh3j322<<,oohhhhhhhhhhhhhhhhhh",
"hhhhhhhhhhhhhhhhhhh33vbvkj2<<OOhhhhhhhhhhhhhhhhh",
"hhhhhhhhhhhhhhhhhhh3, 8g84g4 XOhhhhhhhhhhhhhhhhh",
"hhhhhhhhhhhhhhhhhhhoX&ice0ci&Xohhhhhhhhhhhhhhhhh",
"hhhhhhhhhhhhhhhhhhhhX@ruyyur@Xhhhhhhhhhhhhhhhhhh",
"hhhhhhhhhhhhhhhhhhhhh@qrw0rq@hhhhhhhhhhhhhhhhhhh",
"hhhhhhhhhhhhhhhhhhhh  7uzzu@  hhhhhhhhhhhhhhhhhh",
"hhhhhhhhhhhhhhhhhhh1   %888   hhhhhhhhhhhhhhhhhh",
"hhhhhhhhhhhhhhhhhhw1O2b    b2 6hhhhhhhhhhhhhhhhh",
"hhhhhhhhhhhhhhhhhww,1# ,5$O  0r8hhhhhhhhhhhhhhhh",
"hhhhhhhhhhhhhhhh8eq,O60tqr00rree8hhhhhhhhhhhhhhh",
"hhhhhhhhhhhhhhhh8t60OO60q8660teqq&hhhhhhhhhhhhhh",
"hhhhhhhhhhhhhhhh8q679XX6q8qe508qe&hhhhhhhhhhhhhh",
"hhhhhhhhhhhhhhhhq9%7r&XXO6&778@qe#hhhhhhhhhhhhhh",
"hhhhhhhhhhhhhhhhqe97qr&+ Xrzxe&qe5hhhhhhhhhhhhhh",
"hhhhhhhhhhhhhhhhwe9%9ww%++zyrr007qhhhhhhhhhhhhhh",
"hhhhhhhhhhhhhhhhee$@8w4e%6zyrr000%hhhhhhhhhhhhhh",
"hhhhhhhhhhhhhhhhhi8O<2<vlO+e0.555%hhhhhhhhhhhhhh",
"hhhhhhhhhhhhhhhhhxwO<2<33OOOO%&&&%hhhhhhhhhhhhhh",
"hhhhhhhhhhhhhhhhhhh$%4444#44$$%%%hhhhhhhhhhhhhhh",
"hhhhhhhhhhhhhhhhhh40eeeq9&865&#.hhhhhhhhhhhhhhhh",
"hhhhhhhhhhhhhhhhhh6euyre95865&$#hhhhhhhhhhhhhhhh",
"hhhhhhhhhhhhhhhhhh0tuyre97&65&$@hhhhhhhhhhhhhhhh",
"hhhhhhhhhhhhhhhhhh08666668&65&$+hhhhhhhhhhhhhhhh",
"hhhhhhhhhhhhhhhhhh80qrrw8%.$$#++hhhhhhhhhhhhhhhh",
"hhhhhhhhhhhhhhhhhh6rtttrw5$%%#@+hhhhhhhhhhhhhhhh",
"hhhhhhhhhhhhhhhhhh6rttttw5$4&%#hhhhhhhhhhhhhhhhh",
"hhhhhhhhhhhhhhhhhhhrttttw6$4&&$hhhhhhhhhhhhhhhhh",
"hhhhhhhhhhhhhhhhhh9ttttt00&5&&$hhhhhhhhhhhhhhhhh",
"hhhhhhhhhhhhhhhhhhqt9tttr557&#&$hhhhhhhhhhhhhhhh",
"hhhhhhhhhhhhhhhhhht9wwww7w&###+$hhhhhhhhhhhhhhhh",
"hhhhhhhhhhhhhhhhhh44wwww9&+#@+Xhhhhhhhhhhhhhhhhh",
"hhhhhhhhhhhhhhhhhhh47www9%XXXX hhhhhhhhhhhhhhhhh",
"hhhhhhhhhhhhhhhhhhh44555%.    hhhhhhhhhhhhhhhhhh",
"hhhhhhhhhhhhhhhhhhhh XXXX ***Xhhhhhhhhhhhhhhhhhh",
"hhhhhhhhhhhhhhhhhhhh:d:X  *>;Xhhhhhhhhhhhhhhhhhh",
"hhhhhhhhhhhhhhhhhhhh:d:X  Xa;Xhhhhhhhhhhhhhhhhhh",
"hhhhhhhhhhhhhhhhhhhh:d:X  Xpa;hhhhhhhhhhhhhhhhhh",
"hhhhhhhhhhhhhhhhhhhhhd:X h XXXhhhhhhhhhhhhhhhhhh",
"hhhhhhhhhhhhhhhhhhhhh :X hhhhhhhhhhhhhhhhhhhhhhh",
"hhhhhhhhhhhhhhhhhhhh=:f>* hhhhhhhhhhhhhhhhhhhhhh",
"hhhhhhhhhhhhhhhhhhhO;psp-XOhhhhhhhhhhhhhhhhhhhhh"
};
