/* XPM */
static char *b539648f7f0f496ec7bfe301df0010a74Pa8JkQu9EV53eyP[] = {
/* columns rows colors chars-per-pixel */
"47 48 49 1 ",
"  c black",
". c #28200C",
"X c #382C14",
"o c #202020",
"O c #2C2C2C",
"+ c gray22",
"@ c #403018",
"# c #483818",
"$ c #543C1C",
"% c #5C4020",
"& c #6C4824",
"* c #744C28",
"= c #000040",
"- c #00004C",
"; c #000064",
": c #00007C",
"> c #484848",
", c gray33",
"< c #646464",
"1 c gray44",
"2 c #7C7C7C",
"3 c #80502C",
"4 c #885830",
"5 c #905C34",
"6 c #9C6038",
"7 c #A0643C",
"8 c #A86840",
"9 c #B47044",
"0 c #BC7848",
"q c #C87C4C",
"w c #D08050",
"e c #DC8854",
"r c #E88C58",
"t c #F0945C",
"y c #FC9C60",
"u c #FCA470",
"i c #000088",
"p c #0000A4",
"a c #0004FC",
"s c #980088",
"d c gray55",
"f c #989898",
"g c gray66",
"h c #B4B4B4",
"j c #FCB080",
"k c #FCB890",
"l c #FCBC9C",
"z c #C0C0C0",
"x c #D0D0D0",
/* pixels */
"sssssssssssssssssssssssssssssssssssssssssssssss",
"sssssssssssssssssssss2gd2,+ssssssssssssssssssss",
"ssssssssssssssssssss2g<1,>OOsssssssssssssssssss",
"ssssssssssssssssssssd211,>+Osssssssssssssssssss",
"sssssssssssssssssss2d211,,>OOssssssssssssssssss",
"ssssssssssssssssss22zxzgd1,,++sssssssssssssssss",
"ssssssssssssssssss2> 7a73a3 o+sssssssssssssssss",
"ssssssssssssssssssOo*ulw9lu*oOsssssssssssssssss",
"ssssssssssssssssssso#eyttye#ossssssssssssssssss",
"ssssssssssssssssssss#0eq9e0#sssssssssssssssssss",
"sssssssssssssssssss  6yjjy#  ssssssssssssssssss",
"ssssssssssssssssss< ,, 49 ,,  &ssssssssssssssss",
"ssssssssssssssss88<+hf    f2 588sssssssssssssss",
"sssssssssssssss*er9<$ >4.4  9eee8ssssssssssssss",
"sssssssssssssssqrww+<5rr6eeeewqq0*sssssssssssss",
"ssssssssssssssqer099++5w6w553*7570sssssssssssss",
"sssssssssssssswr083q5o+5$w5ww**&533ssssssssssss",
"sssssssssssssswr0&#555o++5*66#*X33$ssssssssssss",
"sssssssssssssqqw5&@$55$ o+5*#*$X**3ssssssssssss",
"sssssssssssssrr85&X@*33%  o+5$XX@%&ssssssssssss",
"sssssssssssssr06%%X@@%%%X$   ..#%77&sssssssssss",
"sssssssssssss0rr53Xoooo2<<ooooo#7774sssssssssss",
"sssssssssssss0wq73#oooo<<>oooo..7ke4sssssssssss",
"sssssssssssssswkw&###&&&$&%##@@.kee6sssssssssss",
"sssssssssssssske48%%*488$38884$@eee6sssssssssss",
"ssssssssssssssuue8*%%*543700074s@e9ssssssssssss",
"sssssssssssssss8844&&**&370tt74ssssssssssssssss",
"sssssssssssssssss666***$3*443&%ssssssssssssssss",
"sssssssssssssssss$%&&&$$X3wtt03ssssssssssssssss",
"sssssssssssssssss55566638wttytwssssssssssssssss",
"sssssssssssssssss59997738wtturwssssssssssssssss",
"sssssssssssssssss5w997748wtyuy0ssssssssssssssss",
"ssssssssssssssssssw9977456uuuuussssssssssssssss",
"ssssssssssssssssssw99774%t9tt0t0sssssssssssssss",
"sssssssssssssssssswew774qt36886tsssssssssssssss",
"sssssssssssssssss5w7774$4$9833&ssssssssssssssss",
"sssssssssssssssss55&744$.#.$33$$sssssssssssssss",
"ssssssssssssssssss&&&&&##@.@@@@ssssssssssssssss",
"ssssssssssssssssss@.@###.o ...ossssssssssssssss",
"sssssssssssssssssss ;o   i;=  ossssssssssssssss",
"sssssssssssssssssss ;o   -:=  sssssssssssssssss",
"sssssssssssssssssss i=        sssssssssssssssss",
"sssssssssssssssssss i;        sssssssssssssssss",
"ssssssssssssssssssssi;    i=   ssssssssssssssss",
"ssssssssssssssssssss i    i=   ssssssssssssssss",
"sssssssssssssssssss ipp- s    sssssssssssssssss",
"sssssssssssssssssss;ii;-- sssssssssssssssssssss",
"sssssssssssssssssss;ooo   sssssssssssssssssssss"
};
