/* XPM */
static char *_7472c9ddf0643669a46c3426f3dc2eaE3iYmt5OtUcQRoE0[] = {
/* columns rows colors chars-per-pixel */
"16 27 10 1 ",
"  c None",
". c #2D220F",
"X c #3D2C12",
"o c #4D3716",
"O c #AD7718",
"+ c #DDAF0A",
"@ c #E8BD07",
"# c #F3CA04",
"$ c #FFD800",
"% c #FEFEC0",
/* pixels */
"                ",
"o%%%%%%oo%%%%%%o",
"o%%%%%%oo%%%%%%o",
"o%$$$$%oo%$$$$%o",
"o%$$$$%oo%$$$$%o",
"o%$$$$%oo%$$$$%o",
"o%$$$$%oo%$$$$%o",
"o%$$$$%oo%$$$$%o",
"o%$$$$%oo%$$$$%o",
"o%$#$#%%%#$#$#%o",
"o%#$#$#%%$#$#$%o",
"o%############%o",
"o%############%o",
"o%#@#@%OO%#@#@%o",
"o%@#@#%OO%@#@#%o",
"o%@@@@%XX%@@@@%o",
"o%@@@@%oo%@@@@%o",
"o%@+@+%oo%@+@+%o",
"o%+@+@%oo%+@+@%o",
"o%++++%oo%++++%o",
"o%++++%oo%++++%o",
"oOOOOOOooOOOOOOo",
"oOOOOOOooOOOOOOo",
"oXXXXXXooXXXXXXo",
"oooooooooooooooo",
"................",
"................"
};
