/* XPM */
static char *_234be0893114c63f9f7a2b94e4035d02B5bJdDCWqqt3sBE[] = {
/* columns rows colors chars-per-pixel */
"50 50 57 1 ",
"  c black",
". c #00001C",
"X c #00002C",
"o c #000034",
"O c #202020",
"+ c #2C2C2C",
"@ c gray22",
"# c #400000",
"$ c #4C0000",
"% c #580000",
"& c #640000",
"* c #700000",
"= c #543C1C",
"- c #6C4824",
"; c #744C28",
": c #000040",
"> c #484848",
", c gray33",
"< c gray36",
"1 c #646464",
"2 c gray44",
"3 c #7C7C7C",
"4 c #880000",
"5 c #980000",
"6 c #BC0000",
"7 c #C80000",
"8 c #D40000",
"9 c #FC2020",
"0 c #B45400",
"q c #80502C",
"w c #885830",
"e c #905C34",
"r c #9C6038",
"t c #A0643C",
"y c #CC6000",
"u c #E46C00",
"i c #FC7800",
"p c #A86840",
"a c #B47044",
"s c #BC7848",
"d c #C87C4C",
"f c #D08050",
"g c #DC8854",
"h c #E88C58",
"j c #FC9C60",
"k c #FCA470",
"l c #0000FC",
"z c #980088",
"x c gray55",
"c c #989898",
"v c gray66",
"b c #B4B4B4",
"n c #FCB080",
"m c #FCB890",
"M c #FCC4A4",
"N c #FCCCB0",
"B c #FCD8C4",
/* pixels */
"zzzzzzzzzzzzzzzzzzzzzzzzzzzzzzzzzzzzzzzzzzzzzzzzzz",
"zzzzzzzzzzzzzzzzzzzzzyyuiiiuzzzzzzzzzzzzzzzzzzzzzz",
"zzzzzzzzzzzzzzzzzzzz0yyuiiiu0zzzzzzzzzzzzzzzzzzzzz",
"zzzzzzzzzzzzzzzzzzzze0wy-yiw-zzzzzzzzzzzzzzzzzzzzz",
"zzzzzzzzzzzzzzzzzzzzeefyeeye-zzzzzzzzzzzzzzzzzzzzz",
"zzzzzzzzzzzzzzzzzzzz;kkkddyd;zzzzzzzzzzzzzzzzzzzzz",
"zzzzzzzzzzzzzzzzzzzr;gsnknpa;rzzzzzzzzzzzzzzzzzzzz",
"zzzzzzzzzzzzzzzzzzzagdleneldgazzzzzzzzzzzzzzzzzzzz",
"zzzzzzzzzzzzzzzzzzzrfmMnfwjmfrzzzzzzzzzzzzzzzzzzzz",
"zzzzzzzzzzzzzzzzzzzzpmmkhhjkpzzzzzzzzzzzzzzzzzzzzz",
"zzzzzzzzzzzzzzzzzzzzphnBBBndpzzzzzzzzzzzzzzzzzzzzz",
"zzzzzzzzzzzzzzzzzzzcchnkkknaq,zzzzzzzzzzzzzzzzzzzz",
"zzzzzzzzzzzzzzzzccbbcskkdkht,,1,@zzzzzzzzzzzzzzzzz",
"zzzzzzzzzzzzzz2bbbbbvqeeeeqq2,111,@zzzzzzzzzzzzzzz",
"zzzzzzzzzzzzz2Nb&9bb3bxx3322,11521,>zzzzzzzzzzzzzz",
"zzzzzzzzzzzz2Nbc9bbbb322,,,,222221,,>zzzzzzzzzzzzz",
"zzzzzzzzzzzbbbb223xccx332222222221,,,>zzzzzzzzzzzz",
"zzzzzzzzzzzbbb2,>,2x&ccx332333322>>,,,@zzzzzzzzzzz",
"zzzzzzzzzzbc2,,+>,>1x1111212234,,+@#>,>zzzzzzzzzzz",
"zzzzzzzzzzb82,,+++>,1,,,,,,+  &@@O+++@>>zzzzzzzzzz",
"zzzzzzzzzzbbbb2+z+@>,1>>@@@,@@,++++,*,>@zzzzzzzzzz",
"zzzzzzzzzzbbbbbzzz+@@>1,>@@@+@@@zz>>2,>@zzzzzzzzzz",
"zzzzzzzzzzvvMMMzzz@@@+>,,>>@@+++zzepp,>zzzzzzzzzzz",
"zzzzzzzzzzzjMMkMz>,,,@@@@@+>,@@+zhhhh=@zzzzzzzzzzz",
"zzzzzzzzzzzmMMdwz+>@@,,@@@+++>>@zhhdar+zzzzzzzzzzz",
"zzzzzzzzzzzmMdpwz+>,232,>>@@@++@zaaarrzzzzzzzzzzzz",
"zzzzzzzzzzzzdpwzz@<<<<<211,>>@@+zzrrr=zzzzzzzzzzzz",
"zzzzzzzzzzzzzzzzz,2622<<<21,,>>@zzzzzzzzzzzzzzzzzz",
"zzzzzzzzzzzzzzzz,22xx322>@@@@>>@zzzzzzzzzzzzzzzzzz",
"zzzzzzzzzzzzzzzz,2xxxx27>@>>>@++zzzzzzzzzzzzzzzzzz",
"zzzzzzzzzzzzzzzz,x2xx3x2>@>>>>@+zzzzzzzzzzzzzzzzzz",
"zzzzzzzzzzzzzzzz223vv332,@>>>>@+zzzzzzzzzzzzzzzzzz",
"zzzzzzzzzzzzzzzz1vvvvv32,>>>>>@+zzzzzzzzzzzzzzzzzz",
"zzzzzzzzzzzzzzzzv3333323,,>>>>4+zzzzzzzzzzzzzzzzzz",
"zzzzzzzzzzzzzzzz222221,12,>>>>@+zzzzzzzzzzzzzzzzzz",
"zzzzzzzzzzzzzzzz1,,,,,,>>,>>>>@+zzzzzzzzzzzzzzzzzz",
"zzzzzzzzzzzzzzzz>,,,,,,>>,>@@@,@zzzzzzzzzzzzzzzzzz",
"zzzzzzzzzzzzzzzz@@@@@>>>>>@+@>O,@zzzzzzzzzzzzzzzzz",
"zzzzzzzzzzzzzzzz+@@@@%@+,>@+>O4@@zzzzzzzzzzzzzzzzz",
"zzzzzzzzzzzzzzzzz +++++ +@++@O%+zzzzzzzzzzzzzzzzzz",
"zzzzzzzzzzzzzzzzz:.#   OO+++++OOzzzzzzzzzzzzzzzzzz",
"zzzzzzzzzzzzzzzzz:o..$  ::o.#  zzzzzzzzzzzzzzzzzzz",
"zzzzzzzzzzzzzzzzzz:oX.  ::o..  zzzzzzzzzzzzzzzzzzz",
"zzzzzzzzzzzzzzzzzzo     X::o.  zzzzzzzzzzzzzzzzzzz",
"zzzzzzzzzzzzzzzzzzoXXX  X#...  zzzzzzzzzzzzzzzzzzz",
"zzzzzzzzzzzzzzzzz::oXX  z $   zzzzzzzzzzzzzzzzzzzz",
"zzzzzzzzzzzzzzzzz:%*%oX z::o...zzzzzzzzzzzzzzzzzzz",
"zzzzzzzzzzzzzzzzzzXXXX z XXXXX zzzzzzzzzzzzzzzzzzz",
"zzzzzzzzzzzzzzzzzzzzzzzz:$%$oX zzzzzzzzzzzzzzzzzzz",
"zzzzzzzzzzzzzzzzzzzzzzzz$XXX$X zzzzzzzzzzzzzzzzzzz"
};
