/* XPM */
static char *_efab64186874c0389e15263bfbd024bKCaN9znXonMyCEcv[] = {
/* columns rows colors chars-per-pixel */
"50 49 54 1 ",
"  c black",
". c #00001C",
"X c #00002C",
"o c #000034",
"O c #202020",
"+ c #2C2C2C",
"@ c gray22",
"# c #400000",
"$ c #4C0000",
"% c #580000",
"& c #640000",
"* c #700000",
"= c #7C0000",
"- c #6C4824",
"; c #744C28",
": c #000040",
"> c #484848",
", c gray33",
"< c gray36",
"1 c #646464",
"2 c gray44",
"3 c #7C7C7C",
"4 c #880000",
"5 c #980000",
"6 c #FC2020",
"7 c #B45400",
"8 c #80502C",
"9 c #885830",
"0 c #905C34",
"q c #9C6038",
"w c #A0643C",
"e c #CC6000",
"r c #E46C00",
"t c #FC7800",
"y c #A86840",
"u c #B47044",
"i c #BC7848",
"p c #C87C4C",
"a c #D08050",
"s c #DC8854",
"d c #E88C58",
"f c #FC9C60",
"g c #FCA470",
"h c #0000FC",
"j c #980088",
"k c gray55",
"l c #989898",
"z c gray66",
"x c #B4B4B4",
"c c #FCB080",
"v c #FCB890",
"b c #FCC4A4",
"n c #FCCCB0",
"m c #FCD8C4",
/* pixels */
"jjjjjjjjjjjjjjjjjjjjjjeertttrjjjjjjjjjjjjjjjjjjjjj",
"jjjjjjjjjjjjjjjjjjjjj7eertttr7jjjjjjjjjjjjjjjjjjjj",
"jjjjjjjjjjjjjjjjjjjjj079e-et9-jjjjjjjjjjjjjjjjjjjj",
"jjjjjjjjjjjjjjjjjjjjj00ae00e0-jjjjjjjjjjjjjjjjjjjj",
"jjjjjjjjjjjjjjjjjjjjj;gggppep;jjjjjjjjjjjjjjjjjjjj",
"jjjjjjjjjjjjjjjjjjjjq;sicgcyu;qjjjjjjjjjjjjjjjjjjj",
"jjjjjjjjjjjjjjjjjjjjusph0c0hpsujjjjjjjjjjjjjjjjjjj",
"jjjjjjjjjjjjjjjjjjjjqavbca9fvaqjjjjjjjjjjjjjjjjjjj",
"jjjjjjjjjjjjjjjjjjjjjyvvgddfgyjjjjjjjjjjjjjjjjjjjj",
"jjjjjjjjjjjjjjjjjjjjjydcmmmcpyjjjjjjjjjjjjjjjjjjjj",
"jjjjjjjjjjjjjjjjjjjj22dcgggcu8,jjjjjjjjjjjjjjjjjjj",
"jjjjjjjjjjjjjjjjjllllliggpgdw,,>>>jjjjjjjjjjjjjjjj",
"jjjjjjjjjjjjjjj2llxxll288888,2,<<222jjjjjjjjjjjjjj",
"jjjjjjjjjjjjjj2x&6xxl1ll33222,<<22221jjjjjjjjjjjjj",
"jjjjjjjjjjjjj2nl6xx3ll1111,,,22235221,jjjjjjjjjjjj",
"jjjjjjjjjjjjxnl2233llllll3333333211,,>jjjjjjjjjjjj",
"jjjjjjjjjjjjxl322,223=lllll333342>>>>@jjjjjjjjjjjj",
"jjjjjjjjjjjxl322,+,233333321@  &,++@+@+jjjjjjjjjjj",
"jjjjjjjjjjj1x22,++,,2321,,,,>>>@@OO++++jjjjjjjjjjj",
"jjjjjjjjjjj211@@j+@,,,2211,,2>@,++++++@jjjjjjjjjjj",
"jjjjjjjjjjjxx22,@j+@,,11,112>@@+O@@@@>@jjjjjjjjjjj",
"jjjjjjjjjjjjxz22@@>>,11,>>@@@@>@@j@,2,@jjjjjjjjjjj",
"jjjjjjjjjjjj2lzbba>,,1,>@@@@>,@@jj,,2,@jjjjjjjjjjj",
"jjjjjjjjjjjjj2vbgg+,2,,,>@@1,+++jj,pdd+jjjjjjjjjjj",
"jjjjjjjjjjjjj2vcpp@@@2,,111>>>,,@j-dpu+jjjjjjjjjjj",
"jjjjjjjjjjjjjjvdpy>>,,22223kkk2,@juuuqjjjjjjjjjjjj",
"jjjjjjjjjjjjjjdpy>>>,112311111,,+jqqqqjjjjjjjjjjjj",
"jjjjjjjjjjjjjjjjj@,,1123>,2kllk2,jjjjjjjjjjjjjjjjj",
"jjjjjjjjjjjjjjjjj122*1,>+23kllk2,+jjjjjjjjjjjjjjjj",
"jjjjjjjjjjjjjjjjj1211,,,+23kllk24+jjjjjjjjjjjjjjjj",
"jjjjjjjjjjjjjjjjj132211*@23kllk2,+jjjjjjjjjjjjjjjj",
"jjjjjjjjjjjjjjjjj122211,@23klll2,+jjjjjjjjjjjjjjjj",
"jjjjjjjjjjjjjjjjj132211,@23klllk,+jjjjjjjjjjjjjjjj",
"jjjjjjjjjjjjjjjjj132111,@23klllll>jjjjjjjjjjjjjjjj",
"jjjjjjjjjjjjjjjjjj3211,,@+2222k+2,jjjjjjjjjjjjjjjj",
"jjjjjjjjjjjjjjjjjj2211,,@121,k+412jjjjjjjjjjjjjjjj",
"jjjjjjjjjjjjjjjjj211,,,@+@+,,2+%+jjjjjjjjjjjjjjjjj",
"jjjjjjjjjjjjjjjjj11>,,@@+O+++@@++jjjjjjjjjjjjjjjjj",
"jjjjjjjjjjjjjjjjjj>>>>>@++OOOOOOOjjjjjjjjjjjjjjjjj",
"jjjjjjjjjjjjjjjjjj@>>@@%+O:OOOOOOjjjjjjjjjjjjjjjjj",
"jjjjjjjjjjjjjjjjjj+@@@++OO:#...# jjjjjjjjjjjjjjjjj",
"jjjjjjjjjjjjjjjjjjjo:#X   X. #  jjjjjjjjjjjjjjjjjj",
"jjjjjjjjjjjjjjjjjjjo:o  #  X..  jjjjjjjjjjjjjjjjjj",
"jjjjjjjjjjjjjjjjjjj :#X    X    jjjjjjjjjjjjjjjjjj",
"jjjjjjjjjjjjjjjjjjjj ..   jX$ # jjjjjjjjjjjjjjjjjj",
"jjjjjjjjjjjjjjjjjjjj     jj#### jjjjjjjjjjjjjjjjjj",
"jjjjjjjjjjjjjjjjjjj::::o. jjjjjjjjjjjjjjjjjjjjjjjj",
"jjjjjjjjjjjjjjjjjjj%%*%.. jjjjjjjjjjjjjjjjjjjjjjjj",
"jjjjjjjjjjjjjjjjjjjooo    jjjjjjjjjjjjjjjjjjjjjjjj"
};
