/* XPM */
static char *_53d6b6d4fa3454da24f24b097546e9foaSpxr1RhmzhVSQd[] = {
/* columns rows colors chars-per-pixel */
"49 49 59 1 ",
"  c black",
". c #28200C",
"X c #00002C",
"o c #000034",
"O c #202020",
"+ c #2C2C2C",
"@ c gray19",
"# c gray22",
"$ c #400000",
"% c #4C0000",
"& c #580000",
"* c #640000",
"= c #7C0000",
"- c #483818",
"; c #6C4824",
": c #744C28",
"> c #000040",
", c gray25",
"< c #484848",
"1 c gray33",
"2 c #646464",
"3 c gray44",
"4 c #7C7C7C",
"5 c #880000",
"6 c #980000",
"7 c #BC0000",
"8 c #E00000",
"9 c #EC0000",
"0 c #FC0000",
"q c #FC2020",
"w c #B45400",
"e c #80502C",
"r c #885830",
"t c #905C34",
"y c #9C6038",
"u c #A0643C",
"i c #CC6000",
"p c #E46C00",
"a c #FC7800",
"s c #A86840",
"d c #B47044",
"f c #BC7848",
"g c #C87C4C",
"h c #D08050",
"j c #DC8854",
"k c #E88C58",
"l c #F0945C",
"z c #FC9C60",
"x c #FCA470",
"c c #0000FC",
"v c #980088",
"b c gray55",
"n c #989898",
"m c gray66",
"M c #B4B4B4",
"N c #FCB080",
"B c #FCB890",
"V c #FCC4A4",
"C c #FCD8C4",
/* pixels */
"vvvvvvvvvvvvvvvvvvvvviipaaapvvvvvvvvvvvvvvvvvvvvv",
"vvvvvvvvvvvvvvvvvvvvwiipaaapwvvvvvvvvvvvvvvvvvvvv",
"vvvvvvvvvvvvvvvvvvvvtwri;iar;vvvvvvvvvvvvvvvvvvvv",
"vvvvvvvvvvvvvvvvvvvvtthittit;vvvvvvvvvvvvvvvvvvvv",
"vvvvvvvvvvvvvvvvvvvv:xxxggig:vvvvvvvvvvvvvvvvvvvv",
"vvvvvvvvvvvvvvvvvvvy:jfNxNsd:yvvvvvvvvvvvvvvvvvvv",
"vvvvvvvvvvvvvvvvvvvdjgctNtcgjdvvvvvvvvvvvvvvvvvvv",
"vvvvvvvvvvvvvvvvvvvyhBVNhrzBhyvvvvvvvvvvvvvvvvvvv",
"vvvvvvvvvvvvvvvvvvvvsBBxkkzxsvvvvvvvvvvvvvvvvvvvv",
"vvvvvvvvvvvvvvvvv33nskNCCCNgsvvvvvvvvvvvvvvvvvvvv",
"vvvvvvvvvvvvvv3339mnnkNxxxNde<1vvvvvvvvvvvvvvvvvv",
"vvvvvvvvvvvv3nVVqMmbnfxxgxku<<111vvvvvvvvvvvvvvvv",
"vvvvvvvvvvvvM3mnnnnbn2eeeee<<14443vvvvvvvvvvvvvvv",
"vvvvvvvvvvvM33nn346b4nb333<<34bmb43vvvvvvvvvvvvvv",
"vvvvvvvvvvvM333134bbn422<<3nn8MMMn43vvvvvvvvvvvvv",
"vvvvvvvvvvvMM1212222nbbbbbnnMn3nMMn3vvvvvvvvvvvvv",
"vvvvvvvvvvvM53###1321nnnn#mnm#MMMn31vvvvvvvvvvvvv",
"vvvvvvvvvvvvn321#<132<4nn1 m5#MMMn31vvvvvvvvvvvvv",
"vvvvvvvvvvvvn321#v<3n2<<233m*13nMM35vvvvvvvvvvvvv",
"vvvvvvvvvvvvnll-+v#<3n12<<NNkMMMnM1vvvvvvvvvvvvvv",
"vvvvvvvvvvvvgltjtv#1<3411NNgg3nn3n1vvvvvvvvvvvvvv",
"vvvvvvvvvvvvgkkttv#31<<4<NNgg333121vvvvvvvvvvvvvv",
"vvvvvvvvvvvvvgsttv#13b1<<<Ngg11111vvvvvvvvvvvvvvv",
"vvvvvvvvvvvvvvvvvv<111b31<<##++vvvvvvvvvvvvvvvvvv",
"vvvvvvvvvvvvvvvvvv24n42133,,###+vvvvvvvvvvvvvvvvv",
"vvvvvvvvvvvvvvvvvv111111111<,,#+vvvvvvvvvvvvvvvvv",
"vvvvvvvvvvvvvvvvv1347n321,1,++++vvvvvvvvvvvvvvvvv",
"vvvvvvvvvvvvvvvvv24nnnn31#++<,#+vvvvvvvvvvvvvvvvv",
"vvvvvvvvvvvvvvvvv24nnnn0<+#,,,,+vvvvvvvvvvvvvvvvv",
"vvvvvvvvvvvvvvvvv24nnnn41+O,,,#+vvvvvvvvvvvvvvvvv",
"vvvvvvvvvvvvvvvvv3bnnnnb2<+,###+vvvvvvvvvvvvvvvvv",
"vvvvvvvvvvvvvvvvv3bnnnnb3<+###&+vvvvvvvvvvvvvvvvv",
"vvvvvvvvvvvvvvvvv3bnnnnb4<+####+vvvvvvvvvvvvvvvvv",
"vvvvvvvvvvvvvvvvv3bnnnnnb1##@##+vvvvvvvvvvvvvvvvv",
"vvvvvvvvvvvvvvvvv3nnnnnnn<##@@@++vvvvvvvvvvvvvvvv",
"vvvvvvvvvvvvvvvvv2n13333n<<#@@@@+vvvvvvvvvvvvvvvv",
"vvvvvvvvvvvvvvvvv313333312#+@O5O+vvvvvvvvvvvvvvvv",
"vvvvvvvvvvvvvvvvv#<333331#O++O&Ovvvvvvvvvvvvvvvvv",
"vvvvvvvvvvvvvvvvvv#1333=1+OOOOO vvvvvvvvvvvvvvvvv",
"vvvvvvvvvvvvvvvvvv#<111<+Ooo   vvvvvvvvvvvvvvvvvv",
"vvvvvvvvvvvvvvvvvvv            vvvvvvvvvvvvvvvvvv",
"vvvvvvvvvvvvvvvvvvvo>%oX  o    vvvvvvvvvvvvvvvvvv",
"vvvvvvvvvvvvvvvvvvvo>>o%  $%$oovvvvvvvvvvvvvvvvvv",
"vvvvvvvvvvvvvvvvvvvo>>oX       vvvvvvvvvvvvvvvvvv",
"vvvvvvvvvvvvvvvvvvvv>%oX vvvvvvvvvvvvvvvvvvvvvvvv",
"vvvvvvvvvvvvvvvvvvvv >oX vvvvvvvvvvvvvvvvvvvvvvvv",
"vvvvvvvvvvvvvvvvvvvo>>>oX vvvvvvvvvvvvvvvvvvvvvvv",
"vvvvvvvvvvvvvvvvvvvo*5*%%.vvvvvvvvvvvvvvvvvvvvvvv",
"vvvvvvvvvvvvvvvvvvv%>oXXX.vvvvvvvvvvvvvvvvvvvvvvv"
};
