/* XPM */
static char *be3dc337303d43dec5208badbba7ab96RwulVrpneoB7KES4[] = {
/* columns rows colors chars-per-pixel */
"52 50 61 1 ",
"  c black",
". c #00001C",
"X c #000034",
"o c #202020",
"O c #2C2C2C",
"+ c #343434",
"@ c gray22",
"# c #400000",
"$ c #4C0000",
"% c #580000",
"& c #640000",
"* c #700000",
"= c #483818",
"- c #543C1C",
"; c #6C4824",
": c #744C28",
"> c #000040",
", c #000058",
"< c #000064",
"1 c gray25",
"2 c #484848",
"3 c gray33",
"4 c gray36",
"5 c #646464",
"6 c gray44",
"7 c #7C7C7C",
"8 c #880000",
"9 c #980000",
"0 c #FC2020",
"q c #B45400",
"w c #80502C",
"e c #885830",
"r c #905C34",
"t c #9C6038",
"y c #A0643C",
"u c #CC6000",
"i c #E46C00",
"p c #FC7800",
"a c #A86840",
"s c #B47044",
"d c #BC7848",
"f c #C87C4C",
"g c #D08050",
"h c #DC8854",
"j c #E88C58",
"k c #FC9C60",
"l c #FCA470",
"z c #0000FC",
"x c #980088",
"c c gray55",
"v c #989898",
"b c gray66",
"n c #B4B4B4",
"m c #FCB080",
"M c #FCB890",
"N c #FCBC9C",
"B c #FCC4A4",
"V c #C0C0C0",
"C c #D0D0D0",
"Z c gainsboro",
"A c #FCD8C4",
/* pixels */
"xxxxxxxxxxxxxxxxxxxxxxxxxxxxxxxxxxxxxxxxxxxxxxxxxxxx",
"xxxxxxxxxxxxxxxxxxxxxxxuuipppixxxxxxxxxxxxxxxxxxxxxx",
"xxxxxxxxxxxxxxxxxxxxxxquuipppiqxxxxxxxxxxxxxxxxxxxxx",
"xxxxxxxxxxxxxxxxxxxxxxrqeu;upe;xxxxxxxxxxxxxxxxxxxxx",
"xxxxxxxxxxxxxxxxxxxxxxrrgurrur;xxxxxxxxxxxxxxxxxxxxx",
"xxxxxxxxxxxxxxxxxxxxxx:lllffuf:xxxxxxxxxxxxxxxxxxxxx",
"xxxxxxxxxxxxxxxxxxxxxt:hdmlmas:txxxxxxxxxxxxxxxxxxxx",
"xxxxxxxxxxxxxxxxxxxxxshfzrmrzfhsxxxxxxxxxxxxxxxxxxxx",
"xxxxxxxxxxxxxxxxxxxxxtgMBmgekMgtxxxxxxxxxxxxxxxxxxxx",
"xxxxxxxxxxxxxxxxxxxxxxaMMljjklaxxxxxxxxxxxxxxxxxxxxx",
"xxxxxxxxxxxxxxxxxxxxxxajmAAAmfaxxxxxxxxxxxxxxxxxxxxx",
"xxxxxxxxxxxxxxxxxxxxxx2jmlllmsw2xxxxxxxxxxxxxxxxxxxx",
"xxxxxxxxxxxxxxxxxxxxx7vdllfljy22233xxxxxxxxxxxxxxxxx",
"xxxxxxxxxxxxxxxxxxx7vvvvdawww23266952xxxxxxxxxxxxxxx",
"xxxxxxxxxxxxxxxxxxvZZn7vv7633325676532xxxxxxxxxxxxxx",
"xxxxxxxxxxxxxxxx6vnZ&0773333226776652@xxxxxxxxxxxxxx",
"xxxxxxxxxxxxxxxxvC6v00b766666667665@@Oxxxxxxxxxxxxxx",
"xxxxxxxxxxxxxxx6C6Nn67755556777626OOOOxxxxxxxxxxxxxx",
"xxxxxxxxxxxxxxx7V6Nv62333&33552  8oOoOxxxxxxxxxxxxxx",
"xxxxxxxxxxxxxxx7nnn6@@22222223  1&Oo$Oxxxxxxxxxxxxxx",
"xxxxxxxxxxxxxxx7n766@@@2jks-@11+OOoOOOxxxxxxxxxxxxxx",
"xxxxxxxxxxxxxxx67nn5vvvmmMhtOOOO@oO$OOxxxxxxxxxxxxxx",
"xxxxxxxxxxxxxxx6nn60vvnmlljaOO@@Oo ;a-xxxxxxxxxxxxxx",
"xxxxxxxxxxxxxxx6nnvnnnnahgawoOOOOo;g;xxxxxxxxxxxxxxx",
"xxxxxxxxxxxxxxxxnnv66633====oOOOOO;;xxxxxxxxxxxxxxxx",
"xxxxxxxxxxxxxxxxx5533@@OooooO@@@OOoxxxxxxxxxxxxxxxxx",
"xxxxxxxxxxxxxxxxxxx3@OOoooO222332Ooxxxxxxxxxxxxxxxxx",
"xxxxxxxxxxxxxxxxxxx32@OOOO@2567642Oxxxxxxxxxxxxxxxxx",
"xxxxxxxxxxxxxxxxxxx538@OOo23444443@xxxxxxxxxxxxxxxxx",
"xxxxxxxxxxxxxxxxxxx532@OOO257cvc63@xxxxxxxxxxxxxxxxx",
"xxxxxxxxxxxxxxxxxxx532@O#O36vvcc63@xxxxxxxxxxxxxxxxx",
"xxxxxxxxxxxxxxxxxxx532@OO@36cvvc63@xxxxxxxxxxxxxxxxx",
"xxxxxxxxxxxxxxxxxxx52@@OO@367ccv03@xxxxxxxxxxxxxxxxx",
"xxxxxxxxxxxxxxxxxxx532@OO@36vvvv63@xxxxxxxxxxxxxxxxx",
"xxxxxxxxxxxxxxxxxxx532@OO@36cvcv63Oxxxxxxxxxxxxxxxxx",
"xxxxxxxxxxxxxxxxxxx23@@OOO3v6vvv63Oxxxxxxxxxxxxxxxxx",
"xxxxxxxxxxxxxxxxxxx322@OOOv666cO62Oxxxxxxxxxxxxxxxxx",
"xxxxxxxxxxxxxxxxxxx2OOOOO2623cO826@xxxxxxxxxxxxxxxxx",
"xxxxxxxxxxxxxxxxxxxxooooo32@36O%O@@xxxxxxxxxxxxxxxxx",
"xxxxxxxxxxxxxxxxxxxxx    oOO@@@@OOxxxxxxxxxxxxxxxxxx",
"xxxxxxxxxxxxxxxxxxxxx>X # oO@@@OOOxxxxxxxxxxxxxxxxxx",
"xxxxxxxxxxxxxxxxxxxxx>     ..... xxxxxxxxxxxxxxxxxxx",
"xxxxxxxxxxxxxxxxxxxxx%%#X  .>X%. xxxxxxxxxxxxxxxxxxx",
"xxxxxxxxxxxxxxxxxxxxx<>    ,>X.  xxxxxxxxxxxxxxxxxxx",
"xxxxxxxxxxxxxxxxxxxxxxxxxxx,%X. #xxxxxxxxxxxxxxxxxxx",
"xxxxxxxxxxxxxxxxxxxxxxxxxxx....# xxxxxxxxxxxxxxxxxxx",
"xxxxxxxxxxxxxxxxxxxxxxxxxxx>%X  xxxxxxxxxxxxxxxxxxxx",
"xxxxxxxxxxxxxxxxxxxxxxxxxx>>>XX> xxxxxxxxxxxxxxxxxxx",
"xxxxxxxxxxxxxxxxxxxxxxxxxx>%*%XX#xxxxxxxxxxxxxxxxxxx",
"xxxxxxxxxxxxxxxxxxxxxxxxxx%XXX%X xxxxxxxxxxxxxxxxxxx"
};
