/* XPM */
static char *be3dc337303d43dec5208badbba7ab96RwulVrpneoB7KES4[] = {
/* columns rows colors chars-per-pixel */
"50 50 61 1 ",
"  c black",
". c #00001C",
"X c #000034",
"o c #202020",
"O c #2C2C2C",
"+ c #343434",
"@ c gray22",
"# c #400000",
"$ c #4C0000",
"% c #580000",
"& c #640000",
"* c #700000",
"= c #483818",
"- c #543C1C",
"; c #6C4824",
": c #744C28",
"> c #000040",
", c #000058",
"< c #000064",
"1 c gray25",
"2 c #484848",
"3 c gray33",
"4 c gray36",
"5 c #646464",
"6 c gray44",
"7 c #7C7C7C",
"8 c #880000",
"9 c #980000",
"0 c #FC2020",
"q c #B45400",
"w c #80502C",
"e c #885830",
"r c #905C34",
"t c #9C6038",
"y c #A0643C",
"u c #CC6000",
"i c #E46C00",
"p c #FC7800",
"a c #A86840",
"s c #B47044",
"d c #BC7848",
"f c #C87C4C",
"g c #D08050",
"h c #DC8854",
"j c #E88C58",
"k c #FC9C60",
"l c #FCA470",
"z c #0000FC",
"x c #980088",
"c c gray55",
"v c #989898",
"b c gray66",
"n c #B4B4B4",
"m c #FCB080",
"M c #FCB890",
"N c #FCBC9C",
"B c #FCC4A4",
"V c #C0C0C0",
"C c #D0D0D0",
"Z c gainsboro",
"A c #FCD8C4",
/* pixels */
"xxxxxxxxxxxxxxxxxxxxxxxxxxxxxxxxxxxxxxxxxxxxxxxxxx",
"xxxxxxxxxxxxxxxxxxxxxxuuipppixxxxxxxxxxxxxxxxxxxxx",
"xxxxxxxxxxxxxxxxxxxxxquuipppiqxxxxxxxxxxxxxxxxxxxx",
"xxxxxxxxxxxxxxxxxxxxxrqeu;upe;xxxxxxxxxxxxxxxxxxxx",
"xxxxxxxxxxxxxxxxxxxxxrrgurrur;xxxxxxxxxxxxxxxxxxxx",
"xxxxxxxxxxxxxxxxxxxxx:lllffuf:xxxxxxxxxxxxxxxxxxxx",
"xxxxxxxxxxxxxxxxxxxxt:hdmlmas:txxxxxxxxxxxxxxxxxxx",
"xxxxxxxxxxxxxxxxxxxxshfzrmrzfhsxxxxxxxxxxxxxxxxxxx",
"xxxxxxxxxxxxxxxxxxxxtgMBmgekMgtxxxxxxxxxxxxxxxxxxx",
"xxxxxxxxxxxxxxxxxxxxxaMMljjklaxxxxxxxxxxxxxxxxxxxx",
"xxxxxxxxxxxxxxxxxxxxxajmAAAmfaxxxxxxxxxxxxxxxxxxxx",
"xxxxxxxxxxxxxxxxxxxxx2jmlllmsw2xxxxxxxxxxxxxxxxxxx",
"xxxxxxxxxxxxxxxxxxxx7vdllfljy22233xxxxxxxxxxxxxxxx",
"xxxxxxxxxxxxxxxxxx7vvvvdawww23266952xxxxxxxxxxxxxx",
"xxxxxxxxxxxxxxxxxvZZn7vv7633325676532xxxxxxxxxxxxx",
"xxxxxxxxxxxxxxx6vnZ&0773333226776652@xxxxxxxxxxxxx",
"xxxxxxxxxxxxxxxvC6v00b766666667665@@Oxxxxxxxxxxxxx",
"xxxxxxxxxxxxxx6C6Nn67755556777626OOOOxxxxxxxxxxxxx",
"xxxxxxxxxxxxxx7V6Nv62333&33552  8oOoOxxxxxxxxxxxxx",
"xxxxxxxxxxxxxx7nnn6@@22222223  1&Oo$Oxxxxxxxxxxxxx",
"xxxxxxxxxxxxxx7n766@@@2jks-@11+OOoOOOxxxxxxxxxxxxx",
"xxxxxxxxxxxxxx67nn5vvvmmMhtOOOO@oO$OOxxxxxxxxxxxxx",
"xxxxxxxxxxxxxx6nn60vvnmlljaOO@@Oo ;a-xxxxxxxxxxxxx",
"xxxxxxxxxxxxxx6nnvnnnnahgawoOOOOo;g;xxxxxxxxxxxxxx",
"xxxxxxxxxxxxxxxnnv66633====oOOOOO;;xxxxxxxxxxxxxxx",
"xxxxxxxxxxxxxxxx5533@@OooooO@@@OOoxxxxxxxxxxxxxxxx",
"xxxxxxxxxxxxxxxxxx3@OOoooO222332Ooxxxxxxxxxxxxxxxx",
"xxxxxxxxxxxxxxxxxx32@OOOO@2567642Oxxxxxxxxxxxxxxxx",
"xxxxxxxxxxxxxxxxxx538@OOo23444443@xxxxxxxxxxxxxxxx",
"xxxxxxxxxxxxxxxxxx532@OOO257cvc63@xxxxxxxxxxxxxxxx",
"xxxxxxxxxxxxxxxxxx532@O#O36vvcc63@xxxxxxxxxxxxxxxx",
"xxxxxxxxxxxxxxxxxx532@OO@36cvvc63@xxxxxxxxxxxxxxxx",
"xxxxxxxxxxxxxxxxxx52@@OO@367ccv03@xxxxxxxxxxxxxxxx",
"xxxxxxxxxxxxxxxxxx532@OO@36vvvv63@xxxxxxxxxxxxxxxx",
"xxxxxxxxxxxxxxxxxx532@OO@36cvcv63Oxxxxxxxxxxxxxxxx",
"xxxxxxxxxxxxxxxxxx23@@OOO3v6vvv63Oxxxxxxxxxxxxxxxx",
"xxxxxxxxxxxxxxxxxx322@OOOv666cO62Oxxxxxxxxxxxxxxxx",
"xxxxxxxxxxxxxxxxxx2OOOOO2623cO826@xxxxxxxxxxxxxxxx",
"xxxxxxxxxxxxxxxxxxxooooo32@36O%O@@xxxxxxxxxxxxxxxx",
"xxxxxxxxxxxxxxxxxxxx    oOO@@@@OOxxxxxxxxxxxxxxxxx",
"xxxxxxxxxxxxxxxxxxxx>X # oO@@@OOOxxxxxxxxxxxxxxxxx",
"xxxxxxxxxxxxxxxxxxxx>     ..... xxxxxxxxxxxxxxxxxx",
"xxxxxxxxxxxxxxxxxxxx%%#X  .>X%. xxxxxxxxxxxxxxxxxx",
"xxxxxxxxxxxxxxxxxxxx<>    ,>X.  xxxxxxxxxxxxxxxxxx",
"xxxxxxxxxxxxxxxxxxxxxxxxxx,%X. #xxxxxxxxxxxxxxxxxx",
"xxxxxxxxxxxxxxxxxxxxxxxxxx....# xxxxxxxxxxxxxxxxxx",
"xxxxxxxxxxxxxxxxxxxxxxxxxx>%X  xxxxxxxxxxxxxxxxxxx",
"xxxxxxxxxxxxxxxxxxxxxxxxx>>>XX> xxxxxxxxxxxxxxxxxx",
"xxxxxxxxxxxxxxxxxxxxxxxxx>%*%XX#xxxxxxxxxxxxxxxxxx",
"xxxxxxxxxxxxxxxxxxxxxxxxx%XXX%X xxxxxxxxxxxxxxxxxx"
};
