/* XPM */
static char *_4fba96810684b4de6a3d563f7c3904cBjz94Ng3xBTtHCpc[] = {
/* columns rows colors chars-per-pixel */
"16 26 10 1 ",
"  c None",
". c #2D220F",
"X c #3D2C12",
"o c #4D3716",
"O c #AD7718",
"+ c #DDAF0A",
"@ c #E8BD07",
"# c #F3CA04",
"$ c #FFD800",
"% c #FEFEC0",
/* pixels */
"o%%%%o    o%%%%o",
"o%%%%o    o%%%%o",
"o%$$%%%o  o%$$%o",
"o%$$$%%o  o%$$%o",
"o%$$$$%o  o%$$%o",
"o%$$$$%o  o%$$%o",
"o%$$$$%%%oo%$$%o",
"o%$$$$$%%oo%$$%o",
"o%$#$#$#%%%#$#%o",
"o%#$#$#$#%%$#$%o",
"o%############%o",
"o%############%o",
"o%#@%OO%#@#@#@%o",
"o%@#%OO%@#@#@#%o",
"o%@@%XXOO%@@@@%o",
"o%@@%ooOO%@@@@%o",
"o%@+%ooXX%@+@+%o",
"o%+@%oooo%+@+@%o",
"o%++%o..oOO%++%o",
"o%++%o..oOO%++%o",
"oOOOOo  oXXOOOOo",
"oOOOOo  oooOOOOo",
"oXXXXo  ..oXXXXo",
"oooooo  ..oooooo",
"......    ......",
"......    ......"
};
