/* XPM */
static char *_184268f41014d73d293d53cae5692dfVTI3vcHY3RwbsWtg[] = {
/* columns rows colors chars-per-pixel */
"16 28 10 1 ",
"  c None",
". c #2D220F",
"X c #3D2C12",
"o c #4D3716",
"O c #AD7718",
"+ c #DDAF0A",
"@ c #E8BD07",
"# c #F3CA04",
"$ c #FFD800",
"% c #FEFEC0",
/* pixels */
"                ",
"o%%%%%%%%%%%%%%o",
"o%%%%%%%%%%%%%%o",
"o%$$$$$$$$$$$$%o",
"o%$$$$$$$$$$$$%o",
"oOOOO%$$$$%OOOOo",
"oOOOO%$$$$%OOOOo",
"oXXXX%$$$$%XXXXo",
"ooooo%$$$$%ooooo",
"....o%$#$#%o....",
"....o%#$#$%o....",
"    o%####%o    ",
"    o%####%o    ",
"    o%#@#@%o    ",
"    o%@#@#%o    ",
"    o%@@@@%o    ",
"    o%@@@@%o    ",
"    o%@+@+%o    ",
"    o%+@+@%o    ",
"    o%++++%o    ",
"    o%++++%o    ",
"    oOOOOOOo    ",
"    oOOOOOOo    ",
"    oXXXXXXo    ",
"    oooooooo    ",
"    ........    ",
"    ........    ",
"                "
};
